<svg data-v-423bf9ae="" xmlns="http://www.w3.org/2000/svg" viewBox="0 0 773 90" class="iconLeftSlogan"><!----><!----><!----><g data-v-423bf9ae="" id="c53fb89c-729d-446e-9e4b-d66acfe4893a" fill="#000000" transform="matrix(6.153846153846154,0,0,6.153846153846154,99.1316089630127,-22.092308631310097)"><path d="M7.53 5.07L7.53 3.82L1.17 3.82L1.17 13.15L2.65 13.15L2.65 9.07L6.80 9.07L6.80 7.90L2.65 7.90L2.65 5.07ZM14.71 13.15L16.32 13.15L12.63 3.82L11.13 3.82L7.44 13.15L9.04 13.15L9.93 10.75L13.82 10.73ZM10.37 9.57L11.89 5.45L13.39 9.57ZM23.36 9.93C23.06 9.42 22.56 9.10 21.96 8.88C23.41 8.62 24.47 7.82 24.47 6.34C24.47 4.83 23.03 3.82 21.32 3.82L17.31 3.82L17.31 13.15L18.80 13.15L18.80 9.06C18.93 9.07 19.09 9.07 19.28 9.07C20.07 9.09 21.18 9.20 21.80 10.11C22.44 11.00 22.62 12.16 23.16 13.15L25.01 13.15C24.27 12.18 24.00 11.04 23.36 9.93ZM20.91 5.00C22.20 5.00 22.93 5.57 22.93 6.53C22.93 7.45 22.31 8.01 21.15 8.01L18.80 8.01L18.80 5.00ZM34.40 3.82L30.98 11.45L27.53 3.82L26.21 3.82L26.21 13.15L27.68 13.15L27.68 7.12L30.45 13.15L31.49 13.15L34.26 7.12L34.26 13.15L35.73 13.15L35.73 3.82ZM44.42 5.07L44.42 3.82L38.06 3.82L38.06 13.15L44.42 13.15L44.42 11.90L39.55 11.90L39.55 9.07L43.69 9.07L43.69 7.90L39.55 7.90L39.55 5.07ZM52.37 9.93C52.06 9.42 51.57 9.10 50.97 8.88C52.41 8.62 53.48 7.82 53.48 6.34C53.48 4.83 52.03 3.82 50.33 3.82L46.32 3.82L46.32 13.15L47.80 13.15L47.80 9.06C47.94 9.07 48.10 9.07 48.29 9.07C49.07 9.09 50.18 9.20 50.81 10.11C51.45 11.00 51.63 12.16 52.16 13.15L54.02 13.15C53.27 12.18 53.01 11.04 52.37 9.93ZM49.92 5.00C51.20 5.00 51.93 5.57 51.93 6.53C51.93 7.45 51.32 8.01 50.15 8.01L47.80 8.01L47.80 5.00ZM63.09 3.82L58.92 3.82L58.92 13.15L60.40 13.15L60.40 9.45L63.09 9.44C64.58 9.44 66.08 8.44 66.08 6.64C66.08 4.81 64.58 3.82 63.09 3.82ZM62.53 8.30L60.40 8.27L60.40 5.00L62.53 4.97C63.85 4.97 64.53 5.59 64.53 6.64C64.53 7.70 63.85 8.31 62.53 8.30ZM72.09 13.34C75.06 13.34 77.03 11.17 77.03 8.46C77.03 5.75 75.06 3.59 72.09 3.59C69.11 3.59 67.14 5.75 67.14 8.46C67.14 11.17 69.11 13.34 72.09 13.34ZM72.09 12.02C70 12.02 68.69 10.37 68.69 8.46C68.69 6.53 70 4.91 72.09 4.91C74.17 4.91 75.48 6.53 75.48 8.46C75.48 10.37 74.17 12.02 72.09 12.02ZM84.86 9.93C84.55 9.42 84.06 9.10 83.46 8.88C84.90 8.62 85.97 7.82 85.97 6.34C85.97 4.83 84.53 3.82 82.82 3.82L78.81 3.82L78.81 13.15L80.30 13.15L80.30 9.06C80.43 9.07 80.59 9.07 80.78 9.07C81.56 9.09 82.67 9.20 83.30 10.11C83.94 11.00 84.12 12.16 84.66 13.15L86.51 13.15C85.76 12.18 85.50 11.04 84.86 9.93ZM82.41 5.00C83.69 5.00 84.42 5.57 84.42 6.53C84.42 7.45 83.81 8.01 82.64 8.01L80.30 8.01L80.30 5.00ZM93.80 3.82L86.60 3.82L86.60 5.09L89.47 5.09L89.47 13.15L90.96 13.15L90.96 5.09L93.80 5.09ZM100.96 13.15L102.56 13.15L98.88 3.82L97.37 3.82L93.68 13.15L95.29 13.15L96.18 10.75L100.07 10.73ZM96.61 9.57L98.13 5.45L99.63 9.57ZM105.04 11.87L105.04 3.82L103.56 3.82L103.56 13.15L109.36 13.15L109.36 11.87Z"></path></g><defs data-v-423bf9ae=""><linearGradient data-v-423bf9ae="" gradientTransform="rotate(25)" id="71a61d03-822f-4ff2-a898-2b7276aeca8c" x1="0%" y1="0%" x2="100%" y2="0%"><stop data-v-423bf9ae="" offset="0%" style="stop-color: rgb(135, 84, 78); stop-opacity: 1;"></stop><stop data-v-423bf9ae="" offset="100%" style="stop-color: rgb(135, 84, 78); stop-opacity: 1;"></stop></linearGradient></defs><g data-v-423bf9ae="" id="6c510c08-4264-4015-98ee-329ff49aae4d" transform="matrix(1.789440998405557,0,0,1.789440998405557,0.8341934061873388,-0.0828913081263849)" stroke="none" fill="url(#71a61d03-822f-4ff2-a898-2b7276aeca8c)"><path d="M24.895 12.414c.07 3.256 2.715 5.876 5.988 5.876 3.27 0 5.919-2.62 5.987-5.876H24.895zM36.83 9.157l.024-3.318C36.709 2.652 34.105.105 30.882.105c-3.222 0-5.829 2.547-5.972 5.734l-.003 3.318h-5.45v1.902h22.822V9.157H36.83z"></path><path d="M38.789 19.348l-15.076-.007c-5.161 0-9.203 4.238-9.203 9.647v8.959h-4.2V21.671h3.198a2.588 2.588 0 0 0 2.586-2.584V6.181H14.28v12.905a.772.772 0 0 1-.772.771h-3.299V6.181H8.395v13.676H5.064a.772.772 0 0 1-.772-.771V6.181H2.478v12.905a2.588 2.588 0 0 0 2.587 2.584h3.229v16.276H3.826C1.314 37.947 0 39.746 0 41.521c0 1.776 1.314 3.573 3.826 3.573h4.468V50.4h2.016v-5.307h7.758l.832-.064c.672-.145 1.207-.523 1.643-.958.349-.347.745-.887.958-1.679l-.001 8.005h19.825l.001-1.714c.31.5.735.915 1.257 1.217.58.333 1.244.5 1.908.5a3.8 3.8 0 0 0 1.911-.506c1.176-.681 1.847-1.937 1.843-3.445V29.112c-.001-4.799-3.537-9.764-9.456-9.764zM25.165 36.032h-1.821l.002-7.413h-3.532v12.529c0 .687-.197 1.246-.57 1.616-.308.306-.762.46-1.17.471l-7.764.008V39.79h6.043V28.988c0-4.45 3.165-7.806 7.36-7.806h1.452v14.85zm9.452-9.791h-6.37v-5.057l6.37.004v5.053zm11.784 20.21c.002 1.085-.501 1.605-.924 1.851a2.004 2.004 0 0 1-1.975.001c-.427-.244-.936-.766-.936-1.854v-17.83h-3.078l-.003 7.413h-1.787V21.19h1.09c4.764 0 7.612 4.028 7.612 7.922v17.339z"></path></g><!----><g data-v-423bf9ae="" id="c04be49a-ccb3-4d6d-aedd-ead7462f4e3a" fill="#000000" transform="matrix(1.5210547171988194,0,0,1.5210547171988194,106.27077439637526,56.80578657595509)"><path d="M5.29 2.21L3.98 2.21L0.04 11.48L1.20 11.48L2.34 8.79L6.93 8.79L8.06 11.48L9.23 11.48ZM2.74 7.83L4.63 3.30L6.52 7.83ZM31.29 2.21L27.38 2.21L27.38 11.48L31.29 11.48C33.50 11.48 35.55 9.74 35.55 6.85C35.55 3.95 33.50 2.21 31.29 2.21ZM31.25 10.49L28.43 10.49L28.43 3.21L31.25 3.21C33.22 3.21 34.50 4.86 34.50 6.85C34.50 8.83 33.22 10.49 31.25 10.49ZM51.06 3.22L51.06 2.21L44.24 2.21L44.24 11.48L51.06 11.48L51.06 10.47L45.29 10.47L45.29 7.35L50.44 7.35L50.44 6.33L45.29 6.33L45.29 3.22ZM63.56 10.57C61.31 10.57 60.05 8.93 60.05 6.85C60.05 4.76 61.31 3.12 63.56 3.12C65.09 3.12 66.09 3.85 66.57 4.98L67.68 4.98C67.09 3.29 65.58 2.10 63.48 2.10C60.69 2.10 59.00 4.21 59.00 6.85C59.00 9.48 60.69 11.59 63.48 11.59C65.58 11.59 67.09 10.40 67.68 8.71L66.57 8.71C66.09 9.84 65.09 10.57 63.56 10.57ZM77.29 2.21L76.24 2.21L76.24 11.48L77.29 11.48ZM87.18 4.65C87.18 4.03 87.54 3.08 89.64 3.08C91.34 3.08 92.12 3.82 92.23 4.75L93.31 4.75C93.23 3.36 92.11 2.10 89.64 2.10C87.32 2.10 86.16 3.15 86.16 4.66C86.16 7.84 92.50 6.69 92.50 8.96C92.50 10.05 91.52 10.60 89.95 10.60C88.34 10.60 87.04 10.05 86.97 8.71L85.88 8.71C86.02 10.37 87.14 11.59 89.88 11.59C92.16 11.59 93.55 10.64 93.55 8.92C93.55 5.68 87.18 6.80 87.18 4.65ZM103.22 2.21L102.17 2.21L102.17 11.48L103.22 11.48ZM116.61 2.10C113.79 2.10 111.90 4.21 111.90 6.85C111.90 9.48 113.79 11.59 116.61 11.59C119.42 11.59 121.31 9.48 121.31 6.85C121.31 4.21 119.42 2.10 116.61 2.10ZM116.61 10.57C114.35 10.57 112.95 8.93 112.95 6.85C112.95 4.76 114.35 3.12 116.61 3.12C118.86 3.12 120.26 4.76 120.26 6.85C120.26 8.93 118.86 10.57 116.61 10.57ZM136.93 2.21L136.93 10.01L131.21 2.21L129.99 2.21L129.99 11.48L131.04 11.48L131.04 3.65L136.77 11.48L137.98 11.48L137.98 2.21ZM163.93 3.22L163.93 2.21L157.23 2.21L157.23 11.48L158.28 11.48L158.28 7.46L163.31 7.46L163.31 6.44L158.28 6.44L158.28 3.22ZM176.51 2.10C173.70 2.10 171.81 4.21 171.81 6.85C171.81 9.48 173.70 11.59 176.51 11.59C179.33 11.59 181.22 9.48 181.22 6.85C181.22 4.21 179.33 2.10 176.51 2.10ZM176.51 10.57C174.26 10.57 172.86 8.93 172.86 6.85C172.86 4.76 174.26 3.12 176.51 3.12C178.77 3.12 180.17 4.76 180.17 6.85C180.17 8.93 178.77 10.57 176.51 10.57ZM190.95 7.92L194.17 7.92L196.41 11.48L197.65 11.48L195.22 7.74C196.25 7.50 197.46 6.90 197.46 5.11C197.46 3.35 196.24 2.21 194.33 2.21L189.90 2.21L189.90 11.48L190.95 11.48ZM190.95 3.21L194.21 3.21C195.52 3.21 196.41 3.93 196.41 5.11C196.41 6.55 195.15 6.93 194.15 6.93L190.95 6.93ZM222.82 2.21L215.31 2.21L215.31 3.22L218.54 3.22L218.54 11.48L219.59 11.48L219.59 3.22L222.82 3.22ZM237.59 2.21L237.59 6.33L232.20 6.33L232.20 2.21L231.15 2.21L231.15 11.48L232.20 11.48L232.20 7.35L237.59 7.35L237.59 11.48L238.64 11.48L238.64 2.21ZM254.73 3.22L254.73 2.21L247.91 2.21L247.91 11.48L254.73 11.48L254.73 10.47L248.96 10.47L248.96 7.35L254.11 7.35L254.11 6.33L248.96 6.33L248.96 3.22ZM278.98 3.70L281.48 11.48L282.67 11.48L285.56 2.21L284.45 2.21L282.07 10.00L279.58 2.21L278.38 2.21L275.88 10.00L273.50 2.21L272.40 2.21L275.28 11.48L276.47 11.48ZM297.84 2.10C295.02 2.10 293.13 4.21 293.13 6.85C293.13 9.48 295.02 11.59 297.84 11.59C300.65 11.59 302.54 9.48 302.54 6.85C302.54 4.21 300.65 2.10 297.84 2.10ZM297.84 10.57C295.58 10.57 294.18 8.93 294.18 6.85C294.18 4.76 295.58 3.12 297.84 3.12C300.09 3.12 301.49 4.76 301.49 6.85C301.49 8.93 300.09 10.57 297.84 10.57ZM312.27 7.92L315.49 7.92L317.73 11.48L318.98 11.48L316.54 7.74C317.58 7.50 318.78 6.90 318.78 5.11C318.78 3.35 317.56 2.21 315.66 2.21L311.22 2.21L311.22 11.48L312.27 11.48ZM312.27 3.21L315.53 3.21C316.85 3.21 317.73 3.93 317.73 5.11C317.73 6.55 316.47 6.93 315.48 6.93L312.27 6.93ZM327.59 2.21L327.59 11.48L333.69 11.48L333.69 10.47L328.64 10.47L328.64 2.21ZM345.95 2.21L342.05 2.21L342.05 11.48L345.95 11.48C348.17 11.48 350.21 9.74 350.21 6.85C350.21 3.95 348.17 2.21 345.95 2.21ZM345.91 10.49L343.10 10.49L343.10 3.21L345.91 3.21C347.89 3.21 349.16 4.86 349.16 6.85C349.16 8.83 347.89 10.49 345.91 10.49Z"></path></g></svg>